PathFileType	4	(X/Y/Z)	C:/Users/beibeiliu/ov580/test_trc/capture2\sequence.27_training_dense_right.trc
DataRate	CameraRate	NumFrames	NumMarkers	Units	OrigDataRate	OrigDataStartFrame	OrigNumFrames
120	120	8	19	mm	120	131	347
Frame#	Time	ThumbCMC			ThumbMCP			ThumbIP			ThumbTip			IndexMCP			IndexPIP			IndexTip			MiddleMCP			MiddlePIP			MiddleTip			RingMCP			RingPIP			RingTip			PinkyMCP			PinkyPIP			PinkyTip			BackHand1			BackHand2			BackHand3	
		X0	Y0	Z0	X1	Y1	Z1	X2	Y2	Z2	X3	Y3	Z3	X4	Y4	Z4	X5	Y5	Z5	X6	Y6	Z6	X7	Y7	Z7	X8	Y8	Z8	X9	Y9	Z9	X10	Y10	Z10	X11	Y11	Z11	X12	Y12	Z12	X13	Y13	Z13	X14	Y14	Z14	X15	Y15	Z15	X16	Y16	Z16	X17	Y17	Z17	X18	Y18	Z18	
130	1.08333	156.992	39.5826	45.7625	141.536	61.2171	21.0146	131.986	67.6682	-2.59318	120.879	68.6122	-22.6585	155.031	21.6413	-26.8995	146.848	32.6078	-49.915	126.266	37.3231	-69.1036	136.494	2.10722	-32.186	122.573	12.7799	-56.0287	104.396	26.6824	-72.4133	123.525	-11.3668	-23.6575	111.085	-7.76189	-47.5867	95.8598	2.16588	-70.4038	107.902	-19.0973	-9.04233	93.0645	-23.0063	-22.3134	80.8077	-28.8564	-45.7664	143.052	-16.4314	24.8538	143.419	-20.1186	57.0715	164.572	3.48427	36.4412	
131	1.09167	157.339	39.5272	42.808	142.138	59.8771	25.3668	132.765	70.0085	-3.25351	123.24	69.2819	-22.6359	157.476	24.8485	-25.046	144.963	32.5949	-48.9358	125.623	44.5882	-65.9699	139.361	3.32257	-27.369	123.016	13.5647	-55.9019	101.143	25.7779	-73.2458	125.1	-11.0208	-21.1024	113.203	-8.27177	-46.7248	95.9746	1.67774	-69.5884	109.073	-20.5852	-7.1984	94.2153	-21.873	-26.7785	82.7929	-28.8512	-44.5259	143.326	-15.372	27.6412	147.106	-19.936	53.112	165.974	3.02624	34.5134	
132	1.1	159.025	44.4473	47.5331	142.284	61.1947	24.1116	133.383	67.523	-5.31551	122.69	62.8578	-24.1467	153.076	22.477	-23.8338	138.628	32.934	-46.6916	116.362	51.3147	-62.2438	143.901	5.49129	-28.3905	124.473	12.3209	-54.8651	104.907	23.5685	-70.9298	127.812	-10.6015	-22.6193	117.563	-8.31401	-44.9641	102.415	2.78976	-69.4863	111.778	-20.3479	-4.44613	98.1715	-21.3339	-28.585	87.6256	-23.7389	-46.6378	144.977	-18.4441	28.4021	146.426	-19.6859	58.3264	169.714	4.46627	40.1156	
133	1.10833	158.703	45.2285	47.3461	139.745	55.5885	19.6315	132.037	60.894	-2.70098	122.498	58.0848	-25.804	155.202	27.5659	-26.627	136.074	39.3092	-45.2329	107.302	51.957	-51.0288	140.749	3.60266	-29.1899	129.795	13.2029	-51.0932	105.711	22.5859	-70.7942	129.946	-11.9699	-20.9453	117.421	-10.9373	-44.719	102.346	-2.93199	-66.9978	112.442	-22.9238	-7.29453	99.1527	-23.604	-28.6953	92.652	-23.4939	-46.3681	146.151	-15.8593	27.4823	152.805	-16.0324	54.4293	170.645	7.85829	38.5446	
134	1.11667	157.451	41.4276	47.1315	139.921	55.2752	22.5957	132.699	63.5548	-7.20362	123.719	56.6074	-29.8558	153.781	25.4347	-25.1128	137.346	41.0906	-43.8092	107.492	56.7044	-45.3582	145.782	6.65453	-30.1632	128.91	13.2218	-53.0192	104.525	24.9365	-73.8294	134.744	-10.2257	-22.6544	122.259	-9.37427	-44.9193	107.293	1.67175	-71.8145	117.713	-20.615	-5.63015	104.869	-20.2426	-30.334	95.797	-23.6475	-49.0882	150.833	-15.6085	29.6851	152.246	-15.5924	59.7021	170.427	4.62529	40.6747	
135	1.125	158.694	43.934	44.363	140.905	59.6743	20.5203	132.148	62.9322	-8.10683	122.951	53.465	-28.109	156.385	29.4141	-24.6148	133.426	38.7014	-42.9034	106.163	52.9221	-43.9951	143.758	5.9878	-31.7781	129.404	13.0206	-53.2611	110.257	23.0601	-72.0022	135.038	-10.1329	-26.2147	122.697	-8.20618	-49.2033	108.963	-2.41707	-68.7106	118.452	-20.0861	-7.95494	104.896	-22.9825	-30.8929	95.9032	-26.5457	-50.6215	149.196	-15.3812	25.3824	155.46	-16.433	58.2092	170.381	7.78065	35.8974	
136	1.13333	157.397	45.7224	47.0758	139.729	56.1372	20.6433	131.095	59.6045	-4.92411	122.741	53.4059	-27.8016	153.146	26.7879	-23.8265	135.477	42.7825	-43.5381	103.425	54.6663	-42.658	144.497	7.16387	-30.7342	132.876	15.0419	-51.8646	110.161	23.0148	-71.7875	135.146	-11.5887	-22.4467	123.842	-9.60023	-46.1769	109.89	-3.16091	-71.6084	120.836	-21.2753	-8.86184	106.381	-23.2904	-30.1875	99.3004	-25.6848	-52.0973	151.544	-15.8735	24.9152	153.011	-16.834	58.384	171.834	7.70937	36.2132	
137	1.14167	157.284	47.6432	47.4952	141.366	58.9193	20.4279	134.881	64.4098	-7.27827	125.265	58.3743	-25.2781	151.287	30.9541	-26.7748	131.694	44.5164	-41.3354	103.917	56.6008	-41.417	145.463	8.86782	-30.1389	130.994	17.7022	-55.9521	111.041	25.8554	-72.9566	137.138	-11.2696	-25.4243	126.345	-7.78162	-50.3163	111.97	-0.688652	-73.0105	122.023	-21.4636	-11.7801	110.551	-24.8362	-29.2685	97.3331	-31.2573	-51.0678	151.622	-17.6927	27.6198	159.293	-13.5071	55.7367	173.053	12.5825	36.2425	
